<?xml version="1.0" encoding="utf-8"?>
<!-- Generator: Adobe Illustrator 25.2.1, SVG Export Plug-In . SVG Version: 6.00 Build 0)  -->
<svg version="1.1" id="layer" xmlns="http://www.w3.org/2000/svg" xmlns:xlink="http://www.w3.org/1999/xlink" x="0px" y="0px"
	 viewBox="0 0 720 380" style="enable-background:new 0 0 720 380;" xml:space="preserve">
<style type="text/css">
	.st0{fill:#084DBC;}
	.st1{fill:#FFFFFF;}
</style>
<polygon class="st0" points="0,66.23 0,324.71 720,358.68 720,21.32 "/>
<g id="text">
	<g>
		<path class="st1" d="M199.68,160.03c10.92-0.36,18.76,2.25,23.52,7.9c4.76,5.65,7.09,14.33,7.14,25.76
			c0.04,9.12-1.4,16.07-4.46,20.67c-3.06,4.61-8.34,6.83-15.85,6.73c-12.05-0.17-24.11-0.34-36.16-0.51c0-6.52,0-9.78,0-16.3
			c10.31,0.01,20.62,0.03,30.92,0.04c2.88,0,4.74-0.97,5.57-2.92c0.83-1.95,1.24-4.68,1.24-8.19c0-4.72-0.85-7.98-2.56-9.77
			c-1.7-1.79-4.68-2.57-8.71-2.58c-3.52-0.01-6.38,0.68-8.39,2.23c-2.01,1.56-3.41,4.39-4.19,8.5c-0.79,4.11-1.18,10.06-1.18,17.86
			c0,8.2,0.48,14.52,1.44,18.97c0.96,4.45,2.6,7.58,4.91,9.37c2.31,1.79,5.52,2.75,9.63,2.87c2.97,0.09,6.66,0.03,11.07-0.18
			c4.41-0.21,8.84-0.66,13.3-1.36c0.73,7.47,1.1,11.2,1.83,18.69c-2.53,1.81-5.42,3.18-8.65,4.12c-3.23,0.94-6.55,1.56-9.96,1.88
			c-3.4,0.31-6.68,0.39-9.83,0.24c-8.21-0.39-14.81-2.53-19.79-6.36c-4.98-3.83-8.58-9.51-10.81-17.01
			c-2.65-8.9-3.59-19.42-3.34-28.61c0.27-10.04,0.45-20.36,3.34-30.12c2.22-7.47,5.79-12.93,10.68-16.36
			C185.31,162.16,191.73,160.29,199.68,160.03z"/>
		<path class="st1" d="M281.71,201.01c0,8.01,0,12.01,0,20.02c-13.02-0.17-26.03-0.35-39.05-0.52c0-7.78,0-11.67,0-19.46
			C255.67,201.04,268.69,201.03,281.71,201.01z"/>
		<path class="st1" d="M339.23,158.35c0,8.61,0,12.91,0,21.52c-16.25,0.26-32.5,0.51-48.75,0.77c0-7.89,0-11.83,0-19.72
			c5.03-0.58,7.55-0.87,12.58-1.46C315.12,159.09,327.17,158.72,339.23,158.35z M321.15,128.9c0,34.54,0,69.08,0,103.61
			c0,3.94,0.55,6.77,1.64,8.48c1.09,1.71,2.9,2.61,5.44,2.68c3.35,0.1,5.03,0.14,8.39,0.24c0.84,8.88,1.26,13.33,2.1,22.23
			c-1.57,0.82-3.5,1.51-5.77,2.07c-2.27,0.56-4.54,0.93-6.81,1.12c-2.27,0.19-4.19,0.24-5.77,0.17c-5.85-0.28-10.42-3.07-13.69-8.34
			c-3.27-5.26-4.91-12.55-4.91-21.92c0-36.44,0-72.89,0-109.33C309.51,129.5,313.39,129.3,321.15,128.9z"/>
		<path class="st1" d="M380.24,154.13c10.92-0.36,18.9,2.66,23.52,9.08c5.91,8.2,7.17,19.39,7.14,29.27
			c-0.03,10.29-1.4,18.25-4.46,23.48c-3.06,5.24-8.34,7.78-15.86,7.67c-12.06-0.17-24.11-0.34-36.17-0.51c0-7.44,0-11.16,0-18.61
			c10.31,0.01,20.62,0.03,30.93,0.04c2.88,0,4.74-1.1,5.57-3.32c0.83-2.22,1.24-5.33,1.24-9.32c0-5.37-0.85-9.08-2.55-11.12
			c-1.7-2.04-4.7-2.94-8.72-2.95c-3.51-0.01-6.38,0.76-8.39,2.52c-2.01,1.77-3.41,5-4.2,9.68c-0.79,4.68-1.18,11.47-1.18,20.36
			c0,9.35,0.48,16.55,1.44,21.62c0.96,5.07,2.6,8.63,4.91,10.66c2.31,2.03,5.53,3.11,9.63,3.23c2.97,0.09,6.66,0,11.07-0.25
			c4.41-0.26,8.85-0.79,13.3-1.59c0.73,8.48,1.1,12.72,1.84,21.22c-2.54,2.07-5.42,3.65-8.65,4.73c-3.23,1.09-6.56,1.82-9.96,2.2
			c-3.4,0.38-6.68,0.49-9.83,0.34c-8.21-0.39-14.81-2.79-19.79-7.13c-4.98-4.34-8.58-10.8-10.81-19.35
			c-2.79-10.68-3.15-21.84-3.34-32.66c-0.2-11.35,0.51-23.29,3.34-34.4c2.17-8.49,5.79-14.74,10.68-18.64
			C365.87,156.5,372.29,154.39,380.24,154.13z"/>
		<path class="st1" d="M453.63,151.73c2.36-0.08,4.94,0.04,7.73,0.35c2.79,0.31,5.61,0.94,8.45,1.9c2.84,0.96,5.44,2.38,7.8,4.26
			c-0.84,9.07-1.26,13.6-2.1,22.64c-3.5-0.27-6.84-0.43-10.03-0.47c-3.19-0.04-6.05-0.03-8.58,0c-3.93,0.06-7.03,1.06-9.3,2.99
			c-2.27,1.94-3.91,5.29-4.91,10.05c-1,4.76-1.51,11.49-1.51,20.2c0,8.71,0.5,15.53,1.51,20.46c1,4.93,2.64,8.39,4.91,10.36
			c2.27,1.97,5.37,3.02,9.3,3.13c1.4,0.04,3.19,0.01,5.37-0.09c2.18-0.1,4.54-0.23,7.08-0.4c2.53-0.17,5.02-0.54,7.47-1.12
			c0.73,9.16,1.1,13.74,1.83,22.92c-3.49,2.77-7.47,4.69-11.92,5.78c-4.45,1.08-8.87,1.51-13.23,1.31
			c-7.95-0.38-14.33-2.71-19.13-6.93c-4.8-4.23-8.31-10.87-10.35-19.82c-2.65-11.61-3.14-23.85-3.15-35.72
			c0-11.87,0.51-24.1,3.21-35.68c2.08-8.93,5.61-15.48,10.42-19.56C439.3,154.19,445.68,151.99,453.63,151.73z"/>
		<path class="st1" d="M509.58,102.03c0.04,14.14,0.09,28.27,0.13,42.41c0,6.45-0.2,12.58-0.59,18.37
			c-0.39,5.8-0.85,10.68-1.38,14.65c0.73,1.28,1.1,1.92,1.83,3.2c0,31.67,0,63.33,0,95c-7.7-0.35-11.56-0.52-19.26-0.87
			c0-57.18,0-114.37,0-171.55C498.02,102.75,501.87,102.51,509.58,102.03z M535.26,149.06c16.45-0.23,18.6,21.96,18.34,34.31
			c0,31.43,0,62.85,0,94.28c-7.76-0.35-11.64-0.53-19.39-0.88c0-27.2,0-54.4,0-81.59c0-5.54-0.52-9.35-1.57-11.44
			c-1.05-2.08-2.84-3.11-5.37-3.07c-2.8,0.04-5.68,1.08-8.65,3.11c-2.97,2.03-6.64,5.22-11.01,9.54c-0.68-7.53-1.02-11.29-1.7-18.8
			c4.8-8,9.7-14.22,14.68-18.61C525.56,151.52,530.54,149.13,535.26,149.06z"/>
	</g>
</g>
</svg>
