<?xml version="1.0" encoding="utf-8"?>
<!-- Generator: Adobe Illustrator 25.2.1, SVG Export Plug-In . SVG Version: 6.00 Build 0)  -->
<svg version="1.1" id="layer" xmlns="http://www.w3.org/2000/svg" xmlns:xlink="http://www.w3.org/1999/xlink" x="0px" y="0px"
	 viewBox="0 0 720 380" style="enable-background:new 0 0 720 380;" xml:space="preserve">
<style type="text/css">
	.st0{fill:#084DBC;}
	.st1{fill:#FFFFFF;}
</style>
<polygon class="st0" points="0,66.23 0,324.71 720,358.68 720,21.32 "/>
<g id="text">
	<g>
		<path class="st1" d="M135.73,148.07c11.36-0.25,25.15,1.8,32.9,11.05c8.46,10.1,9.97,23.86,9.99,36.03
			c0.01,9.26-0.62,20.41-6.23,28.92c-4.24,6.44-11.67,9.56-22.18,9.41c-16.86-0.24-33.73-0.48-50.59-0.71c0-9.12,0-13.68,0-22.8
			c14.42,0.02,28.84,0.04,43.26,0.06c4.03,0.01,6.63-1.35,7.79-4.09c1.16-2.73,1.74-6.55,1.74-11.46c0-6.6-1.19-11.16-3.57-13.67
			c-2.38-2.51-6.55-3.6-12.19-3.61c-4.92-0.01-8.92,0.94-11.73,3.12c-2.81,2.18-4.77,6.15-5.87,11.89
			c-1.1,5.75-1.65,14.07-1.65,24.99c0,11.47,0.67,20.31,2.02,26.54c1.34,6.23,3.64,10.6,6.87,13.1c3.24,2.5,7.73,3.85,13.47,4.02
			c4.15,0.12,9.32,0.04,15.49-0.26c6.17-0.29,12.37-0.92,18.61-1.9c1.03,10.44,1.54,15.67,2.56,26.15
			c-3.54,2.53-7.58,4.45-12.1,5.76c-4.52,1.31-9.17,2.19-13.93,2.62c-4.76,0.44-9.45,0.44-13.75,0.34
			c-8.77-0.21-20.56-3.45-27.68-8.9c-6.91-5.29-12.92-15.51-15.12-23.79c-3.44-12.93-4.66-26.8-4.67-40.02
			c-0.01-13.88,0.69-28.47,4.67-42.14c3.03-10.41,8.18-18.07,14.94-22.89C115.92,150.77,127.35,148.26,135.73,148.07z"/>
		<path class="st1" d="M250.47,205.4c0,9.34,0,18.67,0,28.01c-18.21-0.24-36.42-0.49-54.63-0.73c0-10.89,0-16.33,0-27.22
			C214.06,205.45,232.26,205.42,250.47,205.4z"/>
		<path class="st1" d="M330.95,145.73c0,10.03,0,20.07,0,30.1c-22.73,0.36-45.46,0.72-68.19,1.07c0-11.03,0-16.55,0-27.59
			c7.04-0.81,10.56-1.22,17.6-2.04C297.22,146.76,314.08,146.25,330.95,145.73z M305.65,104.53c0,48.31,0,96.63,0,144.94
			c0,5.52,0.77,9.47,2.29,11.86c1.53,2.39,4.06,3.64,7.61,3.75c4.69,0.13,7.04,0.2,11.73,0.34c0.98,10.37,1.96,20.74,2.93,31.1
			c-2.2,1.14-4.89,2.11-8.07,2.89c-3.18,0.78-6.36,1.3-9.53,1.56c-3.18,0.26-5.87,0.34-8.07,0.23c-8.19-0.39-14.67-4.32-19.16-11.67
			c-5.5-9.01-6.99-20.19-6.87-30.66c0-50.98,0-101.96,0-152.94C289.37,105.37,294.8,105.09,305.65,104.53z"/>
		<path class="st1" d="M388.32,139.82c11.72-0.24,25.64,2.6,32.91,12.7c8.08,11.24,10.01,27.37,9.99,40.95
			c-0.02,10.8-0.76,23.19-6.23,32.85c-4.13,7.29-11.67,10.88-22.18,10.73c-16.87-0.24-33.73-0.48-50.6-0.71c0-10.41,0-15.62,0-26.03
			c14.42,0.02,28.84,0.04,43.26,0.06c4.03,0.01,6.63-1.54,7.79-4.65c1.16-3.1,1.74-7.45,1.74-13.03c0-7.5-1.19-12.69-3.58-15.55
			c-2.38-2.86-6.57-4.11-12.19-4.13c-4.91-0.02-8.92,1.06-11.73,3.53c-2.81,2.48-4.79,7.01-5.87,13.54
			c-1.54,9.36-1.66,19.16-1.65,28.48c0.01,9.9,0.17,20.32,2.02,30.25c1.32,7.09,3.64,12.07,6.87,14.91
			c3.24,2.84,7.73,4.35,13.47,4.52c4.15,0.12,9.32,0.01,15.49-0.35c6.17-0.36,12.37-1.1,18.61-2.23c0.86,9.89,1.71,19.79,2.57,29.68
			c-3.55,2.89-7.58,5.09-12.1,6.61c-4.52,1.52-9.17,2.54-13.93,3.07c-4.76,0.53-9.46,0.57-13.75,0.48
			c-8.89-0.19-20.84-3.79-27.68-9.97c-7.78-7.03-12.55-17.05-15.12-27.07c-3.78-14.7-4.78-30.63-4.67-45.69
			c0.11-15.9,0.14-33.22,4.67-48.12c2.84-9.34,6.79-19.52,14.94-26.07C368.22,143.07,379.88,139.99,388.32,139.82z"/>
		<path class="st1" d="M490.98,136.47c3.22-0.02,6.91,0.05,10.82,0.49c3.91,0.43,7.86,1.32,11.82,2.66
			c3.97,1.34,7.61,3.33,10.91,5.95c-0.98,10.56-1.95,21.11-2.93,31.67c-4.89-0.38-9.57-0.6-14.02-0.65c-4.46-0.05-8.46-0.05-12.01,0
			c-5.5,0.08-9.84,1.48-13.02,4.19c-3.18,2.71-5.49,7.41-6.87,14.05c-1.92,9.25-2.11,19.04-2.11,28.26c0,9.35,0.22,19.23,2.11,28.62
			c1.39,6.89,3.7,11.73,6.87,14.49c3.18,2.75,7.52,4.22,13.02,4.38c1.95,0.06,4.46,0.02,7.52-0.12c3.05-0.14,6.35-0.32,9.9-0.56
			c3.54-0.24,7.03-0.76,10.45-1.57c0.86,10.69,1.71,21.37,2.57,32.06c-4.89,3.88-10.45,6.57-16.68,8.08
			c-6.23,1.51-12.55,1.96-18.51,1.83c-8.6-0.19-20.18-3.66-26.76-9.7c-7.82-7.17-12.17-17.6-14.48-27.73
			c-3.7-16.22-4.4-33.55-4.4-49.97c0-16.4,0.71-33.74,4.49-49.91c2.34-10.02,6.68-20.39,14.57-27.37
			C470.87,139.72,482.44,136.53,490.98,136.47z"/>
		<path class="st1" d="M569.24,66.94c0.06,19.77,0.12,39.55,0.18,59.32c0,9.02-0.28,17.59-0.83,25.7
			c-0.55,8.11-1.19,14.94-1.92,20.5c1.03,1.79,1.54,2.68,2.57,4.47c0,44.3,0,88.6,0,132.89c-10.78-0.49-16.17-0.73-26.95-1.22
			c0-79.99,0-159.99,0-239.98C553.08,67.95,558.47,67.62,569.24,66.94z M605.17,132.74c24-1.01,25.08,31.53,25.66,48
			c0,43.96,0,87.93,0,131.89c-10.85-0.49-16.28-0.74-27.13-1.23c0-38.05,0-76.09,0-114.14c0-7.75-0.73-13.09-2.2-16
			c-1.46-2.91-3.97-4.35-7.52-4.3c-3.91,0.05-7.94,1.51-12.1,4.35c-4.15,2.84-9.29,7.31-15.4,13.35
			c-0.95-10.53-1.43-15.79-2.38-26.3c6.06-9.29,12.12-18.65,20.53-26.03C591.61,136.2,598.51,133.02,605.17,132.74z"/>
	</g>
</g>
</svg>
